<svg xmlns="http://www.w3.org/2000/svg" viewBox="0 0 223 237.82"><defs><style>.cls-1,.cls-2{fill:none;stroke-miterlimit:10;stroke-width:2px;}.cls-1{stroke:#1414f2;}.cls-2{stroke:#000;}</style></defs><title>Asset 1</title><g id="Layer_2" data-name="Layer 2"><g id="Layer_1-2" data-name="Layer 1"><line class="cls-1" x1="68.16" x2="68.16" y2="20.74"/><line class="cls-1" x1="57.79" y1="10.74" x2="78.53" y2="10.74"/><line class="cls-1" x1="68.16" y1="37.04" x2="68.16" y2="57.79"/><line class="cls-1" x1="57.79" y1="47.79" x2="78.53" y2="47.79"/><line class="cls-1" x1="125.95" y1="111.13" x2="125.95" y2="131.87"/><line class="cls-1" x1="115.57" y1="121.87" x2="136.32" y2="121.87"/><line class="cls-1" x1="212.63" y1="111.13" x2="212.63" y2="131.87"/><line class="cls-1" x1="202.26" y1="121.87" x2="223" y2="121.87"/><line class="cls-1" x1="39.27" y1="217.07" x2="39.27" y2="237.82"/><line class="cls-1" x1="28.89" y1="227.82" x2="49.64" y2="227.82"/><line class="cls-2" x1="125.95" x2="125.95" y2="20.74"/><line class="cls-2" x1="115.57" y1="10.74" x2="136.32" y2="10.74"/><line class="cls-2" x1="154.84" x2="154.84" y2="20.74"/><line class="cls-2" x1="144.47" y1="10.74" x2="165.21" y2="10.74"/><line class="cls-2" x1="183.73" x2="183.73" y2="20.74"/><line class="cls-2" x1="173.36" y1="10.74" x2="194.11" y2="10.74"/><line class="cls-2" x1="212.63" x2="212.63" y2="20.74"/><line class="cls-2" x1="202.26" y1="10.74" x2="223" y2="10.74"/><line class="cls-2" x1="10.37" x2="10.37" y2="20.74"/><line class="cls-2" y1="10.74" x2="20.74" y2="10.74"/><line class="cls-2" x1="39.27" x2="39.27" y2="20.74"/><line class="cls-2" x1="28.89" y1="10.74" x2="49.64" y2="10.74"/><line class="cls-2" x1="97.05" x2="97.05" y2="20.74"/><line class="cls-2" x1="86.68" y1="10.74" x2="107.43" y2="10.74"/><line class="cls-2" x1="125.95" y1="37.04" x2="125.95" y2="57.79"/><line class="cls-2" x1="115.57" y1="47.79" x2="136.32" y2="47.79"/><line class="cls-2" x1="154.84" y1="37.04" x2="154.84" y2="57.79"/><line class="cls-2" x1="144.47" y1="47.79" x2="165.21" y2="47.79"/><line class="cls-2" x1="183.73" y1="37.04" x2="183.73" y2="57.79"/><line class="cls-2" x1="173.36" y1="47.79" x2="194.11" y2="47.79"/><line class="cls-2" x1="212.63" y1="37.04" x2="212.63" y2="57.79"/><line class="cls-2" x1="202.26" y1="47.79" x2="223" y2="47.79"/><line class="cls-2" x1="10.37" y1="37.04" x2="10.37" y2="57.79"/><line class="cls-2" y1="47.79" x2="20.74" y2="47.79"/><line class="cls-2" x1="39.27" y1="37.04" x2="39.27" y2="57.79"/><line class="cls-2" x1="28.89" y1="47.79" x2="49.64" y2="47.79"/><line class="cls-2" x1="97.05" y1="37.04" x2="97.05" y2="57.79"/><line class="cls-2" x1="86.68" y1="47.79" x2="107.43" y2="47.79"/><line class="cls-2" x1="125.95" y1="74.09" x2="125.95" y2="94.83"/><line class="cls-2" x1="115.57" y1="84.83" x2="136.32" y2="84.83"/><line class="cls-2" x1="154.84" y1="74.09" x2="154.84" y2="94.83"/><line class="cls-2" x1="144.47" y1="84.83" x2="165.21" y2="84.83"/><line class="cls-2" x1="183.73" y1="74.09" x2="183.73" y2="94.83"/><line class="cls-2" x1="173.36" y1="84.83" x2="194.11" y2="84.83"/><line class="cls-2" x1="212.63" y1="74.09" x2="212.63" y2="94.83"/><line class="cls-2" x1="202.26" y1="84.83" x2="223" y2="84.83"/><line class="cls-2" x1="10.37" y1="74.09" x2="10.37" y2="94.83"/><line class="cls-2" y1="84.83" x2="20.74" y2="84.83"/><line class="cls-2" x1="39.27" y1="74.09" x2="39.27" y2="94.83"/><line class="cls-2" x1="28.89" y1="84.83" x2="49.64" y2="84.83"/><line class="cls-2" x1="68.16" y1="74.09" x2="68.16" y2="94.83"/><line class="cls-2" x1="57.79" y1="84.83" x2="78.53" y2="84.83"/><line class="cls-2" x1="97.05" y1="74.09" x2="97.05" y2="94.83"/><line class="cls-2" x1="86.68" y1="84.83" x2="107.43" y2="84.83"/><line class="cls-2" x1="154.84" y1="111.13" x2="154.84" y2="131.87"/><line class="cls-2" x1="144.47" y1="121.87" x2="165.21" y2="121.87"/><line class="cls-2" x1="183.73" y1="111.13" x2="183.73" y2="131.87"/><line class="cls-2" x1="173.36" y1="121.87" x2="194.11" y2="121.87"/><line class="cls-2" x1="10.37" y1="111.13" x2="10.37" y2="131.87"/><line class="cls-2" y1="121.87" x2="20.74" y2="121.87"/><line class="cls-2" x1="39.27" y1="111.13" x2="39.27" y2="131.87"/><line class="cls-2" x1="28.89" y1="121.87" x2="49.64" y2="121.87"/><line class="cls-2" x1="68.16" y1="111.13" x2="68.16" y2="131.87"/><line class="cls-2" x1="57.79" y1="121.87" x2="78.53" y2="121.87"/><line class="cls-2" x1="97.05" y1="111.13" x2="97.05" y2="131.87"/><line class="cls-2" x1="86.68" y1="121.87" x2="107.43" y2="121.87"/><line class="cls-2" x1="125.95" y1="142.99" x2="125.95" y2="163.73"/><line class="cls-2" x1="115.57" y1="153.73" x2="136.32" y2="153.73"/><line class="cls-2" x1="154.84" y1="142.99" x2="154.84" y2="163.73"/><line class="cls-2" x1="144.47" y1="153.73" x2="165.21" y2="153.73"/><line class="cls-2" x1="183.73" y1="142.99" x2="183.73" y2="163.73"/><line class="cls-2" x1="173.36" y1="153.73" x2="194.11" y2="153.73"/><line class="cls-2" x1="212.63" y1="142.99" x2="212.63" y2="163.73"/><line class="cls-2" x1="202.26" y1="153.73" x2="223" y2="153.73"/><line class="cls-2" x1="10.37" y1="142.99" x2="10.37" y2="163.73"/><line class="cls-2" y1="153.73" x2="20.74" y2="153.73"/><line class="cls-2" x1="39.27" y1="142.99" x2="39.27" y2="163.73"/><line class="cls-2" x1="28.89" y1="153.73" x2="49.64" y2="153.73"/><line class="cls-2" x1="68.16" y1="142.99" x2="68.16" y2="163.73"/><line class="cls-2" x1="57.79" y1="153.73" x2="78.53" y2="153.73"/><line class="cls-2" x1="97.05" y1="142.99" x2="97.05" y2="163.73"/><line class="cls-2" x1="86.68" y1="153.73" x2="107.43" y2="153.73"/><line class="cls-2" x1="125.95" y1="180.03" x2="125.95" y2="200.77"/><line class="cls-2" x1="115.57" y1="190.77" x2="136.32" y2="190.77"/><line class="cls-2" x1="154.84" y1="180.03" x2="154.84" y2="200.77"/><line class="cls-2" x1="144.47" y1="190.77" x2="165.21" y2="190.77"/><line class="cls-2" x1="183.73" y1="180.03" x2="183.73" y2="200.77"/><line class="cls-2" x1="173.36" y1="190.77" x2="194.11" y2="190.77"/><line class="cls-2" x1="212.63" y1="180.03" x2="212.63" y2="200.77"/><line class="cls-2" x1="202.26" y1="190.77" x2="223" y2="190.77"/><line class="cls-2" x1="10.37" y1="180.03" x2="10.37" y2="200.77"/><line class="cls-2" y1="190.77" x2="20.74" y2="190.77"/><line class="cls-2" x1="39.27" y1="180.03" x2="39.27" y2="200.77"/><line class="cls-2" x1="28.89" y1="190.77" x2="49.64" y2="190.77"/><line class="cls-2" x1="68.16" y1="180.03" x2="68.16" y2="200.77"/><line class="cls-2" x1="57.79" y1="190.77" x2="78.53" y2="190.77"/><line class="cls-2" x1="97.05" y1="180.03" x2="97.05" y2="200.77"/><line class="cls-2" x1="86.68" y1="190.77" x2="107.43" y2="190.77"/><line class="cls-2" x1="125.95" y1="217.07" x2="125.95" y2="237.82"/><line class="cls-2" x1="115.57" y1="227.82" x2="136.32" y2="227.82"/><line class="cls-2" x1="154.84" y1="217.07" x2="154.84" y2="237.82"/><line class="cls-2" x1="144.47" y1="227.82" x2="165.21" y2="227.82"/><line class="cls-2" x1="183.73" y1="217.07" x2="183.73" y2="237.82"/><line class="cls-2" x1="173.36" y1="227.82" x2="194.11" y2="227.82"/><line class="cls-2" x1="212.63" y1="217.07" x2="212.63" y2="237.82"/><line class="cls-2" x1="202.26" y1="227.82" x2="223" y2="227.82"/><line class="cls-2" x1="10.37" y1="217.07" x2="10.37" y2="237.82"/><line class="cls-2" y1="227.82" x2="20.74" y2="227.82"/><line class="cls-2" x1="68.16" y1="217.07" x2="68.16" y2="237.82"/><line class="cls-2" x1="57.79" y1="227.82" x2="78.53" y2="227.82"/><line class="cls-2" x1="97.05" y1="217.07" x2="97.05" y2="237.82"/><line class="cls-2" x1="86.68" y1="227.82" x2="107.43" y2="227.82"/></g></g></svg>